<svg xmlns="http://www.w3.org/2000/svg"  viewBox="0 0 80 80" width="31.88" height="32"><path fill="#e1ebf2" d="M17.091,75.5C10.148,75.5,4.5,69.852,4.5,62.909V17.091C4.5,10.148,10.148,4.5,17.091,4.5h45.818 c6.942,0,12.591,5.648,12.591,12.591v45.818c0,6.942-5.648,12.591-12.591,12.591H17.091z"/><path fill="#788b9c" d="M62.909,5C69.576,5,75,10.424,75,17.091v45.818C75,69.576,69.576,75,62.909,75H17.091 C10.424,75,5,69.576,5,62.909V17.091C5,10.424,10.424,5,17.091,5H62.909 M62.909,4H17.091C9.891,4,4,9.891,4,17.091v45.818 C4,70.109,9.891,76,17.091,76h45.818C70.109,76,76,70.109,76,62.909V17.091C76,9.891,70.109,4,62.909,4L62.909,4z"/><path fill="#c5d4de" d="M75.5,17.09v5.41h-10V4.78C71.2,5.96,75.5,11.04,75.5,17.09z"/><path fill="#788b9c" d="M76,23H65V4.166l0.602,0.125C71.627,5.538,76,10.921,76,17.09V23z M66,22h9v-4.91 c0-5.49-3.749-10.306-9-11.679V22z"/><rect width="10" height="17.5" x="65.5" y="22.5" fill="#8bb7f0"/><path fill="#4e7ab5" d="M76,40.5H65V22h11V40.5z M66,39.5h9V23h-9V39.5z"/><rect width="10" height="17.5" x="65.5" y="40" fill="#ffc49c"/><path fill="#a16a4a" d="M76,58H65V39.5h11V58z M66,57h9V40.5h-9V57z"/><path fill="#bae0bd" d="M75.5,57.5v5.41c0,6.05-4.3,11.13-10,12.31V57.5H75.5z"/><path fill="#5e9c76" d="M65,75.834V57h11v5.91c0,6.169-4.373,11.552-10.398,12.799L65,75.834z M66,58v16.589 c5.251-1.373,9-6.188,9-11.679V58H66z"/><path fill="#c5d4de" d="M50.9,54.46c-3.93,4.33-9.6,7.04-15.9,7.04s-11.97-2.71-15.9-7.04c3.52-4.21,9.33-6.96,15.9-6.96 S47.38,50.25,50.9,54.46z"/><path fill="#788b9c" d="M35,62c-12.131,0-22-9.869-22-22s9.869-22,22-22s22,9.869,22,22S47.131,62,35,62z M35,19 c-11.579,0-21,9.421-21,21s9.421,21,21,21s21-9.421,21-21S46.579,19,35,19z"/><ellipse cx="35" cy="35.5" fill="#c5d4de" rx="7.5" ry="8"/><path fill="#788b9c" d="M35,44c-4.411,0-8-3.813-8-8.5s3.589-8.5,8-8.5s8,3.813,8,8.5S39.411,44,35,44z M35,28 c-3.859,0-7,3.364-7,7.5s3.141,7.5,7,7.5s7-3.364,7-7.5S38.859,28,35,28z"/><path fill="#788b9c" d="M50.517,54.78C46.966,50.535,41.166,48,35,48s-11.966,2.535-15.517,6.78l-0.768-0.641 C22.454,49.669,28.542,47,35,47s12.546,2.669,16.284,7.14L50.517,54.78z"/></svg>